HIERARCHY
ROOT Hips
{
	OFFSET -1.184550 1.212001 -92.605789
	CHANNELS 6 Xposition Yposition Zposition Zrotation Xrotation Yrotation
	JOINT Spine
	{
		OFFSET 0.107134 -3.983562 -20.828293
		CHANNELS 3 Zrotation Xrotation Yrotation
		JOINT Spine1
		{
			OFFSET 0.052365 0.528502 -10.119110
			CHANNELS 3 Zrotation Xrotation Yrotation
			JOINT Spine2
			{
				OFFSET 0.041914 0.426318 -9.193100
				CHANNELS 3 Zrotation Xrotation Yrotation
				JOINT Neck
				{
					OFFSET 0.274293 2.659680 -20.339844
					CHANNELS 3 Zrotation Xrotation Yrotation
					JOINT Head
					{
						OFFSET 0.058048 0.582626 -9.746796
						CHANNELS 3 Zrotation Xrotation Yrotation
						End Site
						{
							OFFSET 0.000589 -0.011348 -0.099350
						}
					}
				}
				JOINT LeftShoulder
				{
					OFFSET 4.718655 4.351630 -10.315430
					CHANNELS 3 Zrotation Xrotation Yrotation
					JOINT LeftArm
					{
						OFFSET 9.498989 -5.100964 1.098145
						CHANNELS 3 Zrotation Xrotation Yrotation
						JOINT LeftForeArm
						{
							OFFSET 23.845404 -5.963766 13.075882
							CHANNELS 3 Zrotation Xrotation Yrotation
							JOINT LeftHand
							{
								OFFSET 23.388580 4.235811 15.412743
								CHANNELS 3 Zrotation Xrotation Yrotation
								End Site
								{
									OFFSET 0.049503 0.027075 -0.082558
								}
							}
						}
					}
				}
				JOINT RightShoulder
				{
					OFFSET -4.420938 4.378176 -10.435394
					CHANNELS 3 Zrotation Xrotation Yrotation
					JOINT RightArm
					{
						OFFSET -9.496534 -5.105543 1.102051
						CHANNELS 3 Zrotation Xrotation Yrotation
						JOINT RightForeArm
						{
							OFFSET -23.845407 -5.963773 13.075897
							CHANNELS 3 Zrotation Xrotation Yrotation
							JOINT RightHand
							{
								OFFSET -23.388588 4.235806 15.412758
								CHANNELS 3 Zrotation Xrotation Yrotation
								End Site
								{
									OFFSET -0.049503 0.027075 -0.082558
								}
							}
						}
					}
				}
			}
		}
	}
	JOINT LeftUpLeg
	{
		OFFSET 8.239366 -3.086775 -6.172241
		CHANNELS 3 Zrotation Xrotation Yrotation
		JOINT LeftLeg
		{
			OFFSET -0.000001 3.391717 44.241604
			CHANNELS 3 Zrotation Xrotation Yrotation
			JOINT LeftFoot
			{
				OFFSET -0.000006 -4.391884 44.310764
				CHANNELS 3 Zrotation Xrotation Yrotation
				JOINT LeftToeBase
				{
					OFFSET -0.000001 10.427942 9.064467
					CHANNELS 3 Zrotation Xrotation Yrotation
					End Site
					{
						OFFSET 0.000000 0.003176 -0.099948
					}
				}
			}
		}
	}
	JOINT RightUpLeg
	{
		OFFSET -8.176001 -3.084340 -6.257103
		CHANNELS 3 Zrotation Xrotation Yrotation
		JOINT RightLeg
		{
			OFFSET -0.000006 3.391717 44.241608
			CHANNELS 3 Zrotation Xrotation Yrotation
			JOINT RightFoot
			{
				OFFSET -0.000005 -4.391863 44.310661
				CHANNELS 3 Zrotation Xrotation Yrotation
				JOINT RightToeBase
				{
					OFFSET -0.000001 10.428267 9.064082
					CHANNELS 3 Zrotation Xrotation Yrotation
					End Site
					{
						OFFSET 0.000000 0.003173 -0.099948
					}
				}
			}
		}
	}
}
MOTION
Frames: 7
Frame Time: 0.041667
-2.732861 59.473854 -20.620605 -0.000000 0.000004 0.000000 -0.000001 0.000001 0.000001 0.000001 -0.000001 -0.000000 0.000000 -0.000000 -0.000000 -0.000001 0.000005 0.000000 -0.000001 0.000001 0.000000 -0.000008 0.000017 0.000023 -0.000003 -0.000013 -0.000015 -0.000005 0.000014 -0.000004 0.000002 -0.000008 0.000003 -0.000000 0.000020 -0.000032 -0.000002 -0.000006 0.000027 0.000005 -0.000003 0.000006 0.000007 -0.000002 0.000009 -0.000001 0.000004 0.000002 0.000001 -0.000006 -0.000002 0.000000 -0.000012 0.000000 -0.000000 0.000002 -0.000000 0.000000 0.000003 0.000000 -0.000000 0.000002 0.000001 0.000000 0.000002 0.000000 0.000000 0.000001 -0.000000 
-2.479445 58.684994 -20.421249 150.373090 -1.128575 -4.225862 0.000001 0.000002 -0.000003 0.000006 -0.000005 0.000006 -0.000003 -0.000002 -0.000000 0.000003 0.000005 -0.000003 3.221186 6.107297 -14.096638 -15.533394 7.028068 28.068346 -12.345742 -23.004608 -66.553800 18.362084 -36.213339 -30.552440 -0.000000 0.000002 -0.000009 -22.093756 4.728820 -31.600471 25.088974 -36.779052 82.636225 -13.326390 -15.327122 17.510607 -0.000000 -0.000003 0.000001 0.423622 -1.649586 -1.814865 0.431228 31.455910 3.489210 -0.000003 -0.000012 0.000006 -0.000002 0.000006 0.000001 -0.494075 -21.417130 13.040598 0.809634 21.732424 7.310989 0.000008 0.000003 0.000003 -0.000000 0.000001 0.000005 
-2.186151 57.824421 -20.160065 146.665745 -1.555814 -3.886779 -0.000009 -0.000000 -0.000000 -0.000009 -0.000004 0.000004 -0.000010 0.000010 -0.000013 0.000001 -0.000004 0.000007 2.467603 5.113378 -11.774409 -16.781445 7.250989 27.943909 -11.903027 -20.090296 -66.312838 18.516073 -36.293320 -30.237514 0.000002 -0.000010 -0.000003 -22.408975 4.868222 -31.970422 22.977573 -33.400868 80.891310 -13.946305 -16.957188 18.914397 0.000003 0.000001 -0.000002 0.227928 1.543320 -0.806464 0.421473 29.140200 3.511692 -0.000004 0.000002 0.000002 0.000004 -0.000013 -0.000010 -0.548312 -22.675919 12.683529 0.669003 17.735343 6.238949 0.000007 -0.000003 -0.000001 0.000003 0.000003 -0.000002 
-1.813322 56.735603 -19.874413 148.145000 -1.321357 -4.393793 -0.000003 0.000003 -0.000002 0.000007 -0.000005 0.000005 -0.000016 0.000006 -0.000010 0.000007 -0.000001 0.000001 2.421590 4.484476 -12.209629 -14.696445 6.657641 27.525741 -12.623572 -20.317952 -68.275138 18.168023 -38.122264 -31.976862 0.000009 0.000004 -0.000009 -20.635895 4.298652 -30.617392 22.476874 -31.452400 81.652296 -14.993015 -19.121057 19.994124 0.000003 0.000001 0.000002 0.334308 -1.163848 -0.333531 0.448716 29.736315 3.711799 0.000001 -0.000007 -0.000002 -0.000002 -0.000000 -0.000004 -0.371617 -22.213640 13.460437 0.732361 16.816990 6.879607 0.000005 0.000002 -0.000003 -0.000002 0.000004 -0.000001 
-1.358823 55.388130 -19.511528 151.193546 -0.819301 -3.296592 0.000007 0.000002 -0.000003 0.000007 -0.000002 -0.000002 -0.000001 -0.000002 0.000015 0.000009 0.000006 -0.000004 2.249310 3.560203 -12.385677 -14.906777 6.783073 27.610206 -12.802138 -20.538411 -68.954789 18.842953 -39.152068 -31.136316 0.000004 -0.000002 -0.000004 -21.538503 4.440581 -30.788416 24.078510 -32.794081 83.815068 -14.600248 -18.607389 20.118845 0.000005 0.000003 -0.000001 0.506672 -3.389042 -2.195405 0.459884 32.494120 3.669705 0.000004 -0.000014 0.000002 0.000000 0.000002 -0.000001 -0.523513 -22.244263 13.466358 0.789485 20.539671 7.203584 -0.000001 0.000007 0.000003 0.000001 -0.000009 -0.000002 
-0.822884 53.726990 -19.011147 151.234322 -0.817095 -3.265623 -0.000007 0.000004 -0.000001 -0.000001 -0.000001 0.000004 0.000004 0.000003 0.000000 -0.000004 -0.000002 0.000001 2.222380 3.438324 -12.388745 -14.900462 6.777981 27.621333 -12.870487 -20.793237 -69.059175 18.575664 -38.746304 -31.416978 -0.000005 -0.000007 0.000004 -21.740364 4.458814 -30.853085 24.423201 -33.169383 84.163442 -14.363061 -18.272358 20.212954 0.000005 -0.000004 -0.000002 0.516615 -3.503668 -2.285082 0.449838 32.608218 3.583924 0.000007 -0.000015 -0.000005 0.000003 -0.000005 -0.000002 -0.529296 -22.175766 13.504513 0.800679 20.589127 7.303115 -0.000000 0.000002 0.000002 -0.000003 0.000001 0.000001 
-0.245596 51.771305 -18.269547 149.308249 -0.941711 -3.554490 0.000002 0.000001 -0.000004 0.000020 -0.000003 0.000002 -0.000011 -0.000001 -0.000004 0.000003 -0.000000 0.000000 2.092056 3.271724 -11.875773 -14.991423 6.682622 27.794968 -12.616803 -20.457303 -68.055438 19.386659 -37.729101 -29.425708 0.000003 -0.000005 0.000001 -20.865939 4.219497 -30.757814 22.275352 -31.516433 81.003236 -14.919483 -18.679907 19.339797 -0.000003 -0.000003 -0.000006 0.380471 -1.253904 -1.751063 0.371550 30.708363 3.035221 0.000002 -0.000015 0.000003 0.000001 0.000002 -0.000002 -0.606623 -21.159030 13.324095 0.737871 18.665671 6.835079 0.000003 -0.000010 -0.000001 -0.000000 0.000003 0.000002 
